<svg xmlns="http://www.w3.org/2000/svg" viewBox="0 0 64 64" fill="none">
  <defs>
    <linearGradient id="rk-tag" x1="0" y1="0" x2="1" y2="1">
      <stop offset="0" stop-color="#E2230F"/>
      <stop offset="1" stop-color="#8F0C02"/>
    </linearGradient>
  </defs>
  <!-- string -->
  <path d="M14 5 C 27 2, 42 9, 46 23" stroke="#FFFBD4" stroke-width="2.5" stroke-linecap="round" opacity="0.85"/>
  <!-- tag body with punched string hole -->
  <path fill-rule="evenodd" fill="url(#rk-tag)"
    d="M14 13 h36 a9 9 0 0 1 9 9 v20 a9 9 0 0 1 -9 9 h-36 a9 9 0 0 1 -9 -9 v-20 a9 9 0 0 1 9 -9 z
       M46 17 a6 6 0 1 0 0 12 a6 6 0 1 0 0 -12 z"/>
  <!-- geometric R -->
  <g stroke="#FFFBD4" stroke-width="4.5" stroke-linecap="round" stroke-linejoin="round">
    <path d="M26 43 V24"/>
    <path d="M29.5 24 a7.5 7.5 0 0 1 7.5 7.5 a7.5 7.5 0 0 1 -7.5 7.5"/>
    <path d="M33 36.5 L41 44"/>
  </g>
</svg>
